<svg width="24.000000" height="24.000000" viewBox="0 0 24 24" fill="none" xmlns="http://www.w3.org/2000/svg" xmlns:xlink="http://www.w3.org/1999/xlink">
	<desc>
			Created with Pixso.
	</desc>
	<defs/>
	<path id="Vector" d="M16.5 0C12.29 0 9 1.97 9 4.5L9 7.08C8.5 7.02 8 6.99 7.5 7C3.29 7 0 8.97 0 11.5L0 19.5C0 22.02 3.29 24 7.5 24C10.91 24 13.73 22.69 14.66 20.85C15.26 20.94 15.87 21 16.5 21C20.7 21 24 19.02 24 16.5L24 4.5C24 1.97 20.7 0 16.5 0ZM16.5 2C19.64 2 22 3.32 22 4.5C22 5.67 19.64 7 16.5 7C13.35 7 11 5.67 11 4.5C11 3.32 13.35 2 16.5 2ZM7.5 9C10.64 9 13 10.32 13 11.5C13 12.68 10.64 14 7.5 14C4.35 14 2 12.68 2 11.5C2 10.32 4.35 9 7.5 9ZM2 14.58C3.36 15.45 5.3 16 7.5 16C9.69 16 11.63 15.45 13 14.58L13 15.5C13 16.68 10.64 18 7.5 18C4.35 18 2 16.68 2 15.5L2 14.58ZM7.5 22C4.35 22 2 20.68 2 19.5L2 18.58C3.36 19.45 5.3 20 7.5 20C9.69 20 11.63 19.45 13 18.58L13 19.5C13 20.68 10.64 22 7.5 22ZM16.5 19C15.98 19 15.48 18.95 15 18.88L15 16.9C15.49 16.96 15.99 17 16.5 17C18.69 17 20.63 16.45 22 15.58L22 16.5C22 17.68 19.64 19 16.5 19ZM16.5 15C15.98 15 15.48 14.95 15 14.88L15 12.9C15.49 12.96 15.99 13 16.5 13C18.69 13 20.63 12.45 22 11.58L22 12.5C22 13.68 19.64 15 16.5 15ZM16.5 11C15.95 11 15.43 10.94 14.92 10.87C14.72 9.98 14.11 9.18 13.2 8.55C14.19 8.83 15.3 9 16.5 9C18.69 9 20.63 8.45 22 7.58L22 8.5C22 9.68 19.64 11 16.5 11L16.5 11Z" fill="#3E9EB3" fill-opacity="1.000000" fill-rule="nonzero"/>
</svg>
