<svg width="27.105957" height="27.105896" viewBox="0 0 27.106 27.1059" fill="none" xmlns="http://www.w3.org/2000/svg" xmlns:xlink="http://www.w3.org/1999/xlink">
	<desc>
			Created with Pixso.
	</desc>
	<defs>
		<clipPath id="clip62_1050">
			<rect id="Icon" rx="0.000000" width="26.105883" height="26.105883" transform="translate(0.500000 0.500000)" fill="white" fill-opacity="0"/>
		</clipPath>
	</defs>
	<rect id="Icon" rx="0.000000" width="26.105883" height="26.105883" transform="translate(0.500000 0.500000)" fill="#FFFFFF" fill-opacity="0"/>
	<g clip-path="url(#clip62_1050)">
		<path id="Vector" d="M23.71 11.29L23.71 9.03C23.71 8.63 23.61 8.25 23.41 7.9C23.21 7.56 22.93 7.27 22.58 7.08L14.68 2.56C14.33 2.36 13.94 2.26 13.55 2.26C13.15 2.26 12.76 2.36 12.42 2.56L4.51 7.08C4.17 7.27 3.88 7.56 3.69 7.9C3.49 8.25 3.38 8.63 3.38 9.03L3.38 18.07C3.38 18.46 3.49 18.85 3.69 19.19C3.88 19.54 4.17 19.82 4.51 20.02L12.42 24.54C12.76 24.74 13.15 24.84 13.55 24.84C13.94 24.84 14.33 24.74 14.68 24.54L16.94 23.25" stroke="#DE4444" stroke-opacity="1.000000" stroke-width="2.000000" stroke-linejoin="round" stroke-linecap="round"/>
		<path id="Vector" d="M8.47 4.82L18.63 10.63" stroke="#DE4444" stroke-opacity="1.000000" stroke-width="2.000000" stroke-linejoin="round" stroke-linecap="round"/>
		<path id="Vector" d="M3.71 7.9L13.55 13.55L23.39 7.9" stroke="#DE4444" stroke-opacity="1.000000" stroke-width="2.000000" stroke-linejoin="round" stroke-linecap="round"/>
		<path id="Vector" d="M13.55 24.84L13.55 13.55" stroke="#DE4444" stroke-opacity="1.000000" stroke-width="2.000000" stroke-linejoin="round" stroke-linecap="round"/>
		<path id="Vector" d="M19.2 14.68L24.84 20.32M19.2 20.32L24.84 14.68" stroke="#DE4444" stroke-opacity="1.000000" stroke-width="2.000000" stroke-linejoin="round" stroke-linecap="round"/>
	</g>
</svg>
