<svg width="24.000000" height="23.998993" viewBox="0 0 24 23.999" fill="none" xmlns="http://www.w3.org/2000/svg" xmlns:xlink="http://www.w3.org/1999/xlink">
	<desc>
			Created with Pixso.
	</desc>
	<defs/>
	<path id="Vector" d="M6 4.5C6 4.69 5.96 4.89 5.88 5.07C5.81 5.25 5.69 5.42 5.56 5.56C5.42 5.7 5.25 5.81 5.07 5.88C4.89 5.96 4.69 6 4.49 6C4.3 5.99 4.1 5.96 3.92 5.88C3.74 5.81 3.57 5.69 3.43 5.56C3.29 5.42 3.18 5.25 3.11 5.07C3.03 4.89 2.99 4.69 2.99 4.49C2.99 4.1 3.15 3.71 3.43 3.43C3.72 3.15 4.1 2.99 4.5 2.99C4.89 2.99 5.27 3.15 5.56 3.43C5.84 3.72 6 4.1 6 4.5ZM8.5 3C8.3 3 8.1 3.03 7.92 3.11C7.74 3.18 7.57 3.3 7.43 3.43C7.15 3.72 6.99 4.1 7 4.5C7 4.69 7.03 4.89 7.11 5.07C7.18 5.25 7.3 5.42 7.43 5.56C7.72 5.84 8.1 6 8.5 6C8.89 6 9.28 5.84 9.56 5.56C9.84 5.27 10 4.89 10 4.5C10 4.1 9.84 3.72 9.56 3.43C9.27 3.15 8.89 2.99 8.5 3ZM24 3L24 15.19C24 15.89 23.28 16.38 22.62 16.12C22.24 15.96 22 15.6 22 15.19L22 13.09C22 10.83 20.16 9 17.9 9L7.5 9C4.46 9 2 11.46 2 14.5C2 17.53 4.46 20 7.5 20L9.51 20C9.82 20 10.03 20.29 10.01 20.6C9.95 21.3 9.46 22 8.75 22L4.36 22C1.95 22 0 20.04 0 17.63L0 3C0 1.34 1.34 0 3 0L21 0C22.65 0 24 1.34 24 3ZM18 7C20.2 7 22 5.2 22 3C22 2.44 21.55 2 21 2L3 2C2.44 2 2 2.44 2 3C2 5.2 3.79 7 6 7L18 7ZM19 13.5C19 12.67 18.32 12 17.5 12C16.67 12 16 12.67 16 13.5L16 19.36C16 19.69 15.6 19.85 15.37 19.62C14.7 18.94 13.6 18.77 12.81 19.33C12.58 19.5 12.39 19.71 12.25 19.95C12.11 20.2 12.03 20.47 12 20.75C11.98 21.03 12.02 21.31 12.11 21.58C12.21 21.84 12.36 22.08 12.56 22.28L13.48 23.17C14.03 23.7 14.76 23.99 15.53 23.99C16.89 23.99 18 22.89 18 21.53C18 20.11 19.42 19.14 20.74 19.67C21.5 19.97 22 20.71 22 21.53L22 22.99C22 23.55 22.44 23.99 23 23.99C23.55 23.99 24 23.55 24 22.99L24 20.91C24 19.64 23.23 18.51 22.05 18.04L21.5 17.82C19.99 17.21 19 15.75 19 14.12L19 13.49L19 13.5ZM9.36 11C9.71 11 10 11.28 10 11.63C10 11.93 10.2 12.18 10.47 12.28C11.14 12.54 11.74 12.98 12.19 13.54C12.66 14.12 12.96 14.82 13.06 15.55C13.09 15.8 13.29 16 13.54 16C13.79 16 14 16.2 14 16.45L14 17C14 17.55 13.55 18 13 18L5.54 18C4.69 18 4 17.3 4 16.45C4 16.2 4.2 16 4.45 16C4.7 16 4.9 15.8 4.93 15.55C5.03 14.82 5.33 14.12 5.8 13.54C6.25 12.98 6.85 12.54 7.52 12.28C7.79 12.18 8 11.93 8 11.63C8 11.28 8.28 11 8.63 11L9.36 11ZM9 14C8.45 14 7.93 14.2 7.54 14.58C6.91 15.17 7.62 16 8.49 16L9.5 16C10.37 16 11.08 15.17 10.45 14.58C10.06 14.2 9.54 14 9 14L9 14Z" fill="#69CF90" fill-opacity="1.000000" fill-rule="nonzero"/>
</svg>
