<svg width="64.000000" height="64.000000" viewBox="0 0 64 64" fill="none" xmlns="http://www.w3.org/2000/svg" xmlns:xlink="http://www.w3.org/1999/xlink">
	<desc>
			Created with Pixso.
	</desc>
	<defs>
		<clipPath id="clip390_4751">
			<rect id="Frame" rx="0.000000" width="63.000000" height="63.000000" transform="translate(0.500000 0.500000)" fill="white" fill-opacity="0"/>
		</clipPath>
	</defs>
	<g clip-path="url(#clip390_4751)">
		<path id="Vector" d="M58.66 24.66C58.13 24.67 57.63 24.88 57.26 25.26C56.88 25.63 56.67 26.13 56.66 26.66L56.66 42.66L45.52 29.91C44.81 29.16 43.95 28.56 43 28.15C42.05 27.74 41.03 27.53 40 27.53C38.96 27.53 37.94 27.74 36.99 28.15C36.04 28.56 35.18 29.16 34.48 29.91L26.82 38.66L24.32 35.62C23.62 34.79 22.76 34.13 21.78 33.67C20.81 33.21 19.74 32.97 18.66 32.97C17.58 32.97 16.52 33.21 15.54 33.67C14.56 34.13 13.7 34.79 13.01 35.62L7.33 42.48L7.33 16C7.34 13.7 8.25 11.5 9.87 9.87C11.5 8.25 13.7 7.34 16 7.33L37.33 7.33C37.86 7.33 38.37 7.12 38.74 6.74C39.12 6.37 39.33 5.86 39.33 5.33C39.33 4.8 39.12 4.29 38.74 3.91C38.37 3.54 37.86 3.33 37.33 3.33L16 3.33C12.64 3.33 9.41 4.66 7.04 7.04C4.66 9.41 3.33 12.64 3.33 16L3.33 48C3.32 48.04 3.32 48.08 3.33 48.13C3.36 51.46 4.71 54.65 7.09 57C9.46 59.35 12.66 60.66 16 60.66L48 60.66C51.32 60.65 54.5 59.34 56.87 57.01C59.23 54.67 60.59 51.5 60.64 48.18L60.64 26.66C60.63 26.14 60.42 25.64 60.05 25.26C59.68 24.89 59.19 24.68 58.66 24.66ZM48 56.66L16 56.66C13.82 56.65 11.72 55.83 10.12 54.35C8.53 52.86 7.55 50.83 7.38 48.66L16 38.18C16.32 37.82 16.71 37.53 17.15 37.34C17.59 37.14 18.07 37.04 18.56 37.04C19.04 37.04 19.52 37.14 19.96 37.34C20.4 37.53 20.79 37.82 21.12 38.18L25.14 43.04C25.33 43.26 25.56 43.44 25.82 43.57C26.08 43.69 26.37 43.75 26.66 43.76C27.24 43.72 27.78 43.48 28.18 43.06L37.36 32.55C37.68 32.21 38.08 31.94 38.51 31.75C38.95 31.56 39.41 31.47 39.89 31.47C40.36 31.47 40.83 31.56 41.27 31.75C41.7 31.94 42.1 32.21 42.42 32.55L56.48 48.55C56.34 50.73 55.39 52.77 53.82 54.27C52.25 55.77 50.17 56.63 48 56.66Z" fill="#999999" fill-opacity="1.000000" fill-rule="nonzero"/>
		<path id="Vector" d="M11.33 18.66C11.33 20.11 11.76 21.53 12.56 22.74C13.37 23.94 14.51 24.88 15.86 25.44C17.2 25.99 18.67 26.14 20.09 25.85C21.51 25.57 22.82 24.87 23.85 23.85C24.87 22.82 25.57 21.51 25.85 20.09C26.14 18.67 25.99 17.2 25.44 15.86C24.88 14.52 23.94 13.37 22.74 12.56C21.53 11.76 20.11 11.33 18.66 11.33C16.72 11.33 14.85 12.1 13.48 13.48C12.1 14.85 11.33 16.72 11.33 18.66ZM22 18.66C22 19.32 21.8 19.97 21.43 20.51C21.07 21.06 20.55 21.49 19.94 21.74C19.33 21.99 18.66 22.06 18.01 21.93C17.36 21.8 16.77 21.48 16.3 21.02C15.84 20.55 15.52 19.96 15.39 19.31C15.26 18.67 15.33 18 15.58 17.39C15.83 16.78 16.26 16.26 16.81 15.89C17.36 15.52 18 15.33 18.66 15.33C19.55 15.33 20.39 15.68 21.02 16.3C21.64 16.93 22 17.78 22 18.66ZM42.66 15.33L48.66 15.33L48.66 21.33C48.66 21.86 48.87 22.37 49.25 22.74C49.62 23.12 50.13 23.33 50.66 23.33C51.19 23.33 51.7 23.12 52.08 22.74C52.45 22.37 52.66 21.86 52.66 21.33L52.66 15.33L58.66 15.33C59.19 15.33 59.7 15.12 60.08 14.74C60.45 14.37 60.66 13.86 60.66 13.33C60.66 12.8 60.45 12.29 60.08 11.91C59.7 11.54 59.19 11.33 58.66 11.33L52.66 11.33L52.66 5.33C52.66 4.8 52.45 4.29 52.08 3.91C51.7 3.54 51.19 3.33 50.66 3.33C50.13 3.33 49.62 3.54 49.25 3.91C48.87 4.29 48.66 4.8 48.66 5.33L48.66 11.33L42.66 11.33C42.13 11.33 41.62 11.54 41.25 11.91C40.87 12.29 40.66 12.8 40.66 13.33C40.66 13.86 40.87 14.37 41.25 14.74C41.62 15.12 42.13 15.33 42.66 15.33Z" fill="#999999" fill-opacity="1.000000" fill-rule="nonzero"/>
	</g>
</svg>
