<svg width="24.000000" height="24.000000" viewBox="0 0 24 24" fill="none" xmlns="http://www.w3.org/2000/svg" xmlns:xlink="http://www.w3.org/1999/xlink">
	<desc>
			Created with Pixso.
	</desc>
	<defs>
		<clipPath id="clip385_4498">
			<rect id="Frame" rx="0.000000" width="23.000000" height="23.000000" transform="translate(0.500000 0.500000)" fill="white" fill-opacity="0"/>
		</clipPath>
	</defs>
	<g clip-path="url(#clip385_4498)">
		<path id="Vector" d="M12.01 7.55L12.01 2.36C12.75 2.64 13.41 3.07 13.97 3.62L16.73 6.39C17.29 6.94 17.72 7.61 17.99 8.34L12.81 8.34C12.37 8.34 12.01 7.98 12.01 7.55ZM13.02 17.45C12.7 17.76 12.45 18.14 12.27 18.56C12.1 18.98 12.01 19.42 12.01 19.88L12.01 21.03L13.17 21.03C14.08 21.03 14.95 20.67 15.6 20.02L21 14.62C21.32 14.28 21.5 13.82 21.49 13.35C21.49 12.87 21.3 12.42 20.96 12.08C20.63 11.75 20.17 11.55 19.7 11.55C19.22 11.54 18.76 11.72 18.42 12.05L13.02 17.45ZM10.43 19.88C10.43 18.53 10.95 17.27 11.9 16.32L17.3 10.92C17.6 10.62 17.96 10.38 18.35 10.21C18.35 10.12 18.35 10.02 18.34 9.93L12.81 9.93C11.49 9.93 10.43 8.86 10.43 7.55L10.43 2.01C10.3 2.01 10.17 2 10.04 2L6.46 2C4.27 2 2.5 3.77 2.5 5.96L2.5 17.06C2.5 19.25 4.27 21.03 6.46 21.03L10.43 21.03L10.43 19.88Z" fill="#191919" fill-opacity="1.000000" fill-rule="nonzero"/>
	</g>
</svg>
